<svg xmlns="http://www.w3.org/2000/svg" xmlns:xlink="http://www.w3.org/1999/xlink" viewBox="0 0 803.28 243.91"><defs><style>.cls-1{fill:url(#radial-gradient);}.cls-2{fill:url(#radial-gradient-9);}.cls-3{fill:#5aba47;}</style><radialGradient id="radial-gradient" cx="401.64" cy="54.6" r="286.61" gradientUnits="userSpaceOnUse"><stop offset="0" stop-color="#0477bf"/><stop offset="0.22" stop-color="#0c7ec2"/><stop offset="0.56" stop-color="#2190ca"/><stop offset="0.97" stop-color="#44aed7"/><stop offset="1" stop-color="#47b0d8"/></radialGradient><radialGradient id="radial-gradient-9" cx="470.82" cy="201.35" r="193.84" gradientTransform="translate(16.54 -15.68) scale(0.9 1)" gradientUnits="userSpaceOnUse"><stop offset="0" stop-color="#4cb749"/><stop offset="0.25" stop-color="#54b848"/><stop offset="0.63" stop-color="#69bc47"/><stop offset="1" stop-color="#84c145"/></radialGradient></defs><g id="Layer_2" data-name="Layer 2"><g id="Layer_1-2" data-name="Layer 1"><path class="cls-1" d="M0,2.1H26.15V41.4H59.71V2.1H85.86v105H59.71V67.2H26.15v39.9H0Z"/><path class="cls-1" d="M102.7,54.9v-.3c0-30.15,21.83-54.6,51-54.6s50.67,24.15,50.67,54.3v.3c0,30.15-21.83,54.6-50.94,54.6S102.7,85.05,102.7,54.9Zm74.94,0v-.3c0-15.15-9.84-28.35-24.26-28.35s-23.86,12.9-23.86,28.05v.3c0,15.15,9.84,28.35,24.13,28.35S177.64,70.05,177.64,54.9Z"/><path class="cls-1" d="M221.3,2.1h48.39c11.86,0,20.22,3.3,25.74,9.45,3.78,4.2,6.07,9.75,6.07,17v.3c0,12.15-6.2,19.35-14.56,23.4,11.46,4.2,18.74,11.4,18.74,25.65v.3c0,18-13.21,28.95-35.72,28.95H221.3ZM263.22,44c7.95,0,12.4-3,12.4-9.15v-.3c0-5.7-4-9-11.86-9h-17V44ZM267,83.7c7.95,0,12.53-3.45,12.53-9.6v-.3c0-5.7-4-9.45-12.8-9.45h-20V83.7Z"/><path class="cls-1" d="M321,2.1h75.88V26.85h-50v15.9H392.2v23H346.92V82.35H397.6V107.1H321Z"/><path class="cls-1" d="M455,2.1H479.4l38.82,55.5V2.1H544.1v105H521.19l-40.3-57.6v57.6H455Z"/><path class="cls-1" d="M596.8,1.35H622L662.16,107.1h-28l-6.87-18.75H590.87l-6.74,18.75h-27.5ZM619.71,65.7,609.2,35.85,598.55,65.7Z"/><path class="cls-1" d="M674.7,2.1h26.14V44.7L733.33,2.1h31L728.61,47.25l36.93,59.85h-31.4l-23.73-39L700.84,80V107.1H674.7Z"/><path class="cls-1" d="M777,2.1h26.29v105H777Z"/><path class="cls-2" d="M227.15,156.86H199.87v-27.2h79.74v27.2H252.34v84.81H227.15Z"/><path class="cls-2" d="M284.94,186v-.31c0-32.17,21-58.25,49.09-58.25s48.83,25.76,48.83,57.93v.32c0,32.16-21,58.24-49.09,58.24S284.94,218.15,284.94,186Zm72.21,0v-.31c0-16.17-9.49-30.25-23.38-30.25s-23,13.77-23,29.93v.32c0,16.16,9.48,30.24,23.25,30.24S357.15,202.15,357.15,186Z"/><path class="cls-2" d="M396.1,192.55V129.66h25.59v62.25c0,16.16,6.62,23.84,16.75,23.84s16.76-7.36,16.76-23V129.66h25.58v62.09c0,36.16-16.75,52-42.6,52S396.1,227.59,396.1,192.55Z"/><path class="cls-2" d="M497,129.66h43c13.9,0,23.51,4.48,29.61,12.16,5.33,6.4,8,15,8,26.08v.33c0,17.12-7.4,28.48-18.7,34.4l21.69,39H551.56l-18.31-33.92h-11v33.92H497Zm41.82,53.77c8.57,0,13.51-5.12,13.51-13.28v-.33c0-8.8-5.2-13.28-13.64-13.28H522.21v26.89Z"/><path class="cls-2" d="M586.64,241.67v-5h3.58v5Z"/><path class="cls-2" d="M617,238.76a13.27,13.27,0,0,1-2.47,1.85,12.56,12.56,0,0,1-2.84,1.2,12.38,12.38,0,0,1-3.39.43,11.38,11.38,0,0,1-5.46-1.34,13.87,13.87,0,0,1-4.32-3.67,17.83,17.83,0,0,1-2.87-5.5,22.9,22.9,0,0,1,0-13.58,18.34,18.34,0,0,1,2.87-5.55,13.65,13.65,0,0,1,4.36-3.74,11.47,11.47,0,0,1,5.53-1.37,13.89,13.89,0,0,1,3.37.38,12.63,12.63,0,0,1,2.79,1.08,12.78,12.78,0,0,1,2.38,1.68,24.42,24.42,0,0,1,2.1,2.19L617,215.6a18,18,0,0,0-3.76-3.31,8.75,8.75,0,0,0-4.82-1.3,8.6,8.6,0,0,0-4.18,1.06,10.5,10.5,0,0,0-3.36,2.93,14.73,14.73,0,0,0-2.22,4.39,19.26,19.26,0,0,0,0,10.92,14.67,14.67,0,0,0,2.22,4.42,11,11,0,0,0,3.36,2.95,8.4,8.4,0,0,0,4.18,1.08,9,9,0,0,0,4.84-1.27,17.49,17.49,0,0,0,4-3.58l2,2.45A22.55,22.55,0,0,1,617,238.76Z"/><path class="cls-2" d="M649.83,231.47A18.47,18.47,0,0,1,647,237a14.12,14.12,0,0,1-4.41,3.82,12.2,12.2,0,0,1-11.35,0,13.77,13.77,0,0,1-4.39-3.77,17.55,17.55,0,0,1-2.82-5.52,22,22,0,0,1-1-6.65,21.36,21.36,0,0,1,1-6.64,18.18,18.18,0,0,1,2.84-5.55,13.93,13.93,0,0,1,4.4-3.81,12.18,12.18,0,0,1,11.36,0,14,14,0,0,1,4.38,3.77,17.36,17.36,0,0,1,2.83,5.52,22,22,0,0,1,1,6.65A21.46,21.46,0,0,1,649.83,231.47Zm-3-12a14,14,0,0,0-2.24-4.42,11.34,11.34,0,0,0-3.41-3,8.61,8.61,0,0,0-4.3-1.11,8.81,8.81,0,0,0-4.31,1.08,10.45,10.45,0,0,0-3.37,3,14.35,14.35,0,0,0-2.2,4.39,18.69,18.69,0,0,0,0,10.82,14,14,0,0,0,2.24,4.42,11.07,11.07,0,0,0,3.41,3,8.58,8.58,0,0,0,4.3,1.11,8.81,8.81,0,0,0,4.31-1.08,10.65,10.65,0,0,0,3.37-2.95,14.75,14.75,0,0,0,2.2-4.4,17.85,17.85,0,0,0,.8-5.4A18.08,18.08,0,0,0,646.85,219.49Z"/><path class="cls-2" d="M670.83,232.45h-.16l-9.93-17.95v27.17h-3v-33.6h3.12l9.93,18.33,9.94-18.33h3.11v33.6h-3.08V214.45Z"/><rect class="cls-3" x="455.01" y="107.1" width="26.07" height="38.25"/></g></g></svg>