<svg width="6087" height="3650" viewBox="0 0 6087 3650" fill="none" xmlns="http://www.w3.org/2000/svg">
<rect width="6087" height="3650" fill="white"/>
<g clip-path="url(#clip0_0_1)">
<rect width="6087" height="3650" fill="white"/>
<g filter="url(#filter0_i_0_1)">
<path d="M-1494.56 -295.68C-1494.56 -1586.03 -448.526 -2632.07 841.827 -2632.07H4076.83C5367.18 -2632.07 6413.22 -1586.03 6413.22 -295.68V2939.32C6413.22 4229.67 5367.18 5275.71 4076.83 5275.71H841.827C-448.526 5275.71 -1494.56 4229.67 -1494.56 2939.32V-295.68Z" fill="url(#paint0_linear_0_1)"/>
</g>
<g filter="url(#filter1_f_0_1)">
<g filter="url(#filter2_i_0_1)">
<path d="M-1105.56 2822.48C-1105.56 2554.19 -888.072 2336.71 -619.79 2336.71H52.8093C321.091 2336.71 538.576 2554.19 538.576 2822.48V3495.07C538.576 3763.36 321.09 3980.84 52.8091 3980.84H-619.79C-888.072 3980.84 -1105.56 3763.36 -1105.56 3495.07V2822.48Z" fill="url(#paint1_linear_0_1)"/>
</g>
<g opacity="0.41" filter="url(#filter3_f_0_1)">
<path d="M-143.189 3328.04C-143.189 3277.07 -122.942 3228.19 -86.9015 3192.15C-50.8609 3156.11 -1.97945 3135.86 48.9896 3135.86C99.9587 3135.86 148.84 3156.11 184.881 3192.15C220.921 3228.19 241.169 3277.07 241.169 3328.04C241.169 3379.01 220.921 3427.89 184.881 3463.93C148.84 3499.97 99.9587 3520.22 48.9896 3520.22C-1.97945 3520.22 -50.8609 3499.97 -86.9015 3463.93C-122.942 3427.89 -143.189 3379.01 -143.189 3328.04Z" fill="#1ABCFE"/>
<g filter="url(#filter4_f_0_1)">
<path d="M-111.658 3328.05C-111.658 3285.44 -94.7323 3244.58 -64.604 3214.45C-34.4757 3184.32 6.38704 3167.4 48.9949 3167.4C91.6028 3167.4 132.465 3184.32 162.594 3214.45C192.722 3244.58 209.648 3285.44 209.648 3328.05C209.648 3370.66 192.722 3411.52 162.594 3441.65C132.465 3471.78 91.6028 3488.7 48.9949 3488.7C6.38704 3488.7 -34.4757 3471.78 -64.604 3441.65C-94.7323 3411.52 -111.658 3370.66 -111.658 3328.05Z" fill="url(#paint2_linear_0_1)"/>
</g>
<g filter="url(#filter5_f_0_1)">
<path d="M-73.8376 3328.05C-73.8376 3295.47 -60.8965 3264.23 -37.8612 3241.2C-14.826 3218.16 16.4166 3205.22 48.9934 3205.22C81.5702 3205.22 112.813 3218.16 135.848 3241.2C158.883 3264.23 171.824 3295.47 171.824 3328.05C171.824 3360.63 158.883 3391.87 135.848 3414.91C112.813 3437.94 81.5702 3450.88 48.9934 3450.88C16.4166 3450.88 -14.826 3437.94 -37.8612 3414.91C-60.8965 3391.87 -73.8376 3360.63 -73.8376 3328.05Z" stroke="url(#paint3_linear_0_1)" stroke-width="39.9283"/>
</g>
<path d="M-143.189 2751.5V3135.86H48.9896C99.9587 3135.86 148.84 3115.61 184.881 3079.57C220.921 3043.53 241.169 2994.65 241.169 2943.68C241.169 2892.71 220.921 2843.83 184.881 2807.79C148.84 2771.75 99.9587 2751.5 48.9896 2751.5H-143.189Z" fill="#FF7262"/>
<g filter="url(#filter6_f_0_1)">
<path d="M206.023 2943.68C206.023 2986.67 188.948 3027.89 158.552 3058.29C128.157 3088.68 86.9321 3105.76 43.9467 3105.76H-118.13V2781.61H43.9467C86.9321 2781.61 128.157 2798.68 158.552 2829.08C188.948 2859.47 206.023 2900.7 206.023 2943.68Z" fill="url(#paint4_linear_0_1)"/>
</g>
<path d="M194.911 2943.69C194.911 2983.72 179.006 3022.12 150.694 3050.44C122.382 3078.75 83.9829 3094.65 43.9439 3094.65H-107.023V2792.72H43.9439C83.9829 2792.72 122.382 2808.62 150.694 2836.94C179.006 2865.25 194.911 2903.65 194.911 2943.69Z" fill="url(#paint5_linear_0_1)"/>
<g filter="url(#filter7_f_0_1)">
<path d="M140.812 3040.55C166.503 3014.86 180.936 2980.02 180.936 2943.69C180.936 2907.35 166.503 2872.51 140.812 2846.82C115.121 2821.13 80.2765 2806.69 43.9439 2806.69H-93.0484V3080.68H43.9439C80.2766 3080.68 115.121 3066.25 140.812 3040.55Z" stroke="url(#paint6_linear_0_1)" stroke-width="27.9498"/>
</g>
</g>
<path d="M-302.757 3158.17C-302.757 3107.2 -282.509 3058.32 -246.469 3022.28C-210.428 2986.24 -161.547 2965.99 -110.578 2965.99C-59.6087 2965.99 -10.7272 2986.24 25.3134 3022.28C61.3539 3058.32 81.6013 3107.2 81.6013 3158.17C81.6013 3209.14 61.3539 3258.02 25.3134 3294.06C-10.7272 3330.1 -59.6087 3350.35 -110.578 3350.35C-161.547 3350.35 -210.428 3330.1 -246.469 3294.06C-282.509 3258.02 -302.757 3209.14 -302.757 3158.17Z" fill="#1ABCFE"/>
<g filter="url(#filter8_f_0_1)">
<path d="M-271.229 3158.18C-271.229 3115.57 -254.303 3074.71 -224.174 3044.58C-194.046 3014.46 -153.183 2997.53 -110.575 2997.53C-67.9676 2997.53 -27.1048 3014.46 3.02347 3044.58C33.1518 3074.71 50.0777 3115.57 50.0777 3158.18C50.0777 3200.79 33.1518 3241.65 3.02347 3271.78C-27.1048 3301.91 -67.9676 3318.84 -110.575 3318.84C-153.183 3318.84 -194.046 3301.91 -224.174 3271.78C-254.303 3241.65 -271.229 3200.79 -271.229 3158.18Z" fill="url(#paint7_linear_0_1)"/>
</g>
<g filter="url(#filter9_f_0_1)">
<path d="M-233.405 3158.18C-233.405 3125.61 -220.464 3094.36 -197.429 3071.33C-174.393 3048.29 -143.151 3035.35 -110.574 3035.35C-77.9972 3035.35 -46.7546 3048.29 -23.7193 3071.33C-0.684036 3094.36 12.257 3125.61 12.257 3158.18C12.257 3190.76 -0.684036 3222 -23.7193 3245.04C-46.7546 3268.07 -77.9972 3281.01 -110.574 3281.01C-143.151 3281.01 -174.393 3268.07 -197.429 3245.04C-220.464 3222 -233.405 3190.76 -233.405 3158.18Z" stroke="url(#paint8_linear_0_1)" stroke-width="39.9283"/>
</g>
<path d="M-302.757 2581.64V2965.99H-110.578C-59.6087 2965.99 -10.7272 2945.75 25.3134 2909.71C61.3539 2873.67 81.6013 2824.78 81.6013 2773.82C81.6013 2722.85 61.3539 2673.97 25.3134 2637.92C-10.7272 2601.88 -59.6087 2581.64 -110.578 2581.64H-302.757Z" fill="#FF7262"/>
<g filter="url(#filter10_f_0_1)">
<path d="M46.457 2773.82C46.457 2816.8 29.3811 2858.03 -1.01416 2888.42C-31.4094 2918.82 -72.6343 2935.89 -115.62 2935.89H-277.697V2611.74H-115.62C-72.6343 2611.74 -31.4094 2628.81 -1.01416 2659.21C29.3811 2689.6 46.457 2730.83 46.457 2773.82Z" fill="url(#paint9_linear_0_1)"/>
</g>
<path d="M35.3447 2773.82C35.3447 2813.86 19.4393 2852.26 -8.87254 2880.57C-37.1844 2908.88 -75.5835 2924.79 -115.622 2924.79H-266.59V2622.85H-115.622C-75.5835 2622.85 -37.1844 2638.76 -8.87254 2667.07C19.4393 2695.38 35.3447 2733.78 35.3447 2773.82Z" fill="url(#paint10_linear_0_1)"/>
<g filter="url(#filter11_f_0_1)">
<path d="M-18.7543 2870.69C6.93676 2845 21.3698 2810.15 21.3698 2773.82C21.3698 2737.49 6.93676 2702.64 -18.7543 2676.95C-44.4453 2651.26 -79.2899 2636.83 -115.622 2636.83H-252.615V2910.81H-115.622C-79.2899 2910.81 -44.4453 2896.38 -18.7543 2870.69Z" stroke="url(#paint11_linear_0_1)" stroke-width="27.9498"/>
</g>
</g>
<g filter="url(#filter12_f_0_1)">
<g filter="url(#filter13_i_0_1)">
<path d="M6730.41 -435.992C6730.41 -704.273 6512.93 -921.758 6244.65 -921.758H5572.05C5303.76 -921.758 5086.28 -704.273 5086.28 -435.991V236.608C5086.28 504.89 5303.77 722.374 5572.05 722.374H6244.65C6512.93 722.374 6730.41 504.889 6730.41 236.608V-435.992Z" fill="url(#paint12_linear_0_1)"/>
</g>
<g opacity="0.41" filter="url(#filter14_f_0_1)">
<path d="M5768.04 69.5707C5768.04 18.6016 5747.8 -30.2799 5711.76 -66.3204C5675.72 -102.361 5626.83 -122.608 5575.87 -122.608C5524.9 -122.608 5476.02 -102.361 5439.97 -66.3204C5403.93 -30.2799 5383.69 18.6016 5383.69 69.5707C5383.69 120.54 5403.93 169.421 5439.97 205.462C5476.02 241.502 5524.9 261.75 5575.87 261.75C5626.83 261.75 5675.72 241.502 5711.76 205.462C5747.8 169.421 5768.04 120.54 5768.04 69.5707Z" fill="#1ABCFE"/>
<g filter="url(#filter15_f_0_1)">
<path d="M5736.51 69.5838C5736.51 26.9759 5719.59 -13.8868 5689.46 -44.0151C5659.33 -74.1434 5618.47 -91.0693 5575.86 -91.0693C5533.25 -91.0693 5492.39 -74.1434 5462.26 -44.0151C5432.13 -13.8868 5415.21 26.9759 5415.21 69.5838C5415.21 112.192 5432.13 153.054 5462.26 183.183C5492.39 213.311 5533.25 230.237 5575.86 230.237C5618.47 230.237 5659.33 213.311 5689.46 183.183C5719.59 153.054 5736.51 112.192 5736.51 69.5838Z" fill="url(#paint13_linear_0_1)"/>
</g>
<g filter="url(#filter16_f_0_1)">
<path d="M5698.69 69.5833C5698.69 37.0064 5685.75 5.76389 5662.72 -17.2714C5639.68 -40.3067 5608.44 -53.2478 5575.86 -53.2478C5543.29 -53.2478 5512.04 -40.3067 5489.01 -17.2714C5465.97 5.76389 5453.03 37.0064 5453.03 69.5833C5453.03 102.16 5465.97 133.403 5489.01 156.438C5512.04 179.473 5543.29 192.414 5575.86 192.414C5608.44 192.414 5639.68 179.473 5662.72 156.438C5685.75 133.403 5698.69 102.16 5698.69 69.5833Z" stroke="url(#paint14_linear_0_1)" stroke-width="39.9283"/>
</g>
<path d="M6152.4 453.927C6152.4 402.958 6132.16 354.077 6096.12 318.036C6060.08 281.995 6011.19 261.748 5960.23 261.748H5768.05V453.927C5768.05 504.896 5788.29 553.778 5824.33 589.818C5860.37 625.859 5909.26 646.106 5960.23 646.106C6011.19 646.106 6060.08 625.859 6096.12 589.818C6132.16 553.778 6152.4 504.896 6152.4 453.927Z" fill="#0ACF83"/>
<g filter="url(#filter17_f_0_1)">
<path d="M6118.17 453.927C6118.17 412.038 6101.53 371.865 6071.91 342.245C6042.29 312.625 6002.11 295.984 5960.23 295.984H5802.28V453.927C5802.28 495.816 5818.92 535.99 5848.54 565.61C5878.16 595.23 5918.34 611.87 5960.23 611.87C6002.11 611.87 6042.29 595.23 6071.91 565.61C6101.53 535.99 6118.17 495.816 6118.17 453.927Z" fill="url(#paint15_linear_0_1)"/>
</g>
<g opacity="0.3" filter="url(#filter18_f_0_1)">
<path d="M6104.13 453.93C6104.13 415.763 6088.97 379.159 6061.98 352.171C6034.99 325.183 5998.39 310.021 5960.22 310.021H5816.31V453.93C5816.31 492.097 5831.48 528.701 5858.46 555.689C5885.45 582.677 5922.06 597.838 5960.22 597.838C5998.39 597.838 6034.99 582.677 6061.98 555.689C6088.97 528.701 6104.13 492.097 6104.13 453.93Z" fill="url(#paint16_linear_0_1)"/>
</g>
<g filter="url(#filter19_f_0_1)">
<path d="M6092.15 453.93C6092.15 418.94 6078.25 385.383 6053.51 360.641C6028.77 335.9 5995.21 322 5960.22 322H5828.29V453.93C5828.29 488.92 5842.19 522.477 5866.93 547.219C5891.68 571.96 5925.23 585.86 5960.22 585.86C5995.21 585.86 6028.77 571.96 6053.51 547.219C6078.25 522.477 6092.15 488.92 6092.15 453.93Z" stroke="url(#paint17_linear_0_1)" stroke-width="23.957"/>
</g>
<path d="M6152.4 69.5707C6152.4 120.54 6132.16 169.421 6096.12 205.462C6060.08 241.502 6011.19 261.75 5960.23 261.75H5768.05V-122.608H5960.23C6011.19 -122.608 6060.08 -102.361 6096.12 -66.3204C6132.16 -30.2799 6152.4 18.6016 6152.4 69.5707V69.5707Z" fill="#A259FF"/>
<g filter="url(#filter20_f_0_1)">
<path d="M6122.3 52.5543C6122.3 95.5397 6105.22 136.765 6074.83 167.16C6044.43 197.555 6003.21 214.631 5960.22 214.631H5798.15V-109.522H5960.22C6003.21 -109.522 6044.43 -92.4466 6074.83 -62.0513C6105.22 -31.656 6122.3 9.56887 6122.3 52.5543Z" fill="url(#paint18_linear_0_1)"/>
</g>
<path d="M6111.19 52.5571C6111.19 92.5961 6095.28 130.995 6066.97 159.307C6038.66 187.619 6000.26 203.524 5960.22 203.524H5809.25V-98.4102H5960.22C6000.26 -98.4102 6038.66 -82.5047 6066.97 -54.1929C6095.28 -25.881 6111.19 12.5181 6111.19 52.5571Z" fill="url(#paint19_linear_0_1)"/>
<g filter="url(#filter21_f_0_1)">
<path d="M6057.09 149.425C6082.78 123.734 6097.21 88.8897 6097.21 52.5571C6097.21 16.2244 6082.78 -18.6201 6057.09 -44.3111C6031.4 -70.0022 5996.55 -84.4353 5960.22 -84.4353H5823.23V189.549H5960.22C5996.55 189.549 6031.4 175.116 6057.09 149.425Z" stroke="url(#paint20_linear_0_1)" stroke-width="27.9498"/>
</g>
</g>
<path d="M5927.61 -100.295C5927.61 -151.264 5907.36 -200.145 5871.32 -236.186C5835.28 -272.226 5786.4 -292.474 5735.43 -292.474C5684.46 -292.474 5635.58 -272.226 5599.54 -236.186C5563.5 -200.145 5543.25 -151.264 5543.25 -100.295C5543.25 -49.3255 5563.5 -0.444 5599.54 35.5966C5635.58 71.6371 5684.46 91.8845 5735.43 91.8845C5786.4 91.8845 5835.28 71.6371 5871.32 35.5966C5907.36 -0.444 5927.61 -49.3255 5927.61 -100.295Z" fill="#1ABCFE"/>
<g filter="url(#filter22_f_0_1)">
<path d="M5896.08 -100.284C5896.08 -142.892 5879.16 -183.755 5849.03 -213.883C5818.9 -244.012 5778.04 -260.938 5735.43 -260.938C5692.82 -260.938 5651.96 -244.012 5621.83 -213.883C5591.7 -183.755 5574.78 -142.892 5574.78 -100.284C5574.78 -57.6765 5591.7 -16.8138 5621.83 13.3145C5651.96 43.4428 5692.82 60.3687 5735.43 60.3687C5778.04 60.3687 5818.9 43.4428 5849.03 13.3145C5879.16 -16.8138 5896.08 -57.6765 5896.08 -100.284Z" fill="url(#paint21_linear_0_1)"/>
</g>
<g filter="url(#filter23_f_0_1)">
<path d="M5858.26 -100.283C5858.26 -132.86 5845.32 -164.102 5822.28 -187.138C5799.25 -210.173 5768.01 -223.114 5735.43 -223.114C5702.85 -223.114 5671.61 -210.173 5648.57 -187.138C5625.54 -164.102 5612.6 -132.86 5612.6 -100.283C5612.6 -67.7061 5625.54 -36.4636 5648.57 -13.4283C5671.61 9.60698 5702.85 22.5481 5735.43 22.5481C5768.01 22.5481 5799.25 9.60698 5822.28 -13.4283C5845.32 -36.4636 5858.26 -67.7061 5858.26 -100.283Z" stroke="url(#paint22_linear_0_1)" stroke-width="39.9283"/>
</g>
<path d="M6311.97 284.061C6311.97 233.092 6291.73 184.21 6255.68 148.17C6219.64 112.129 6170.76 91.8818 6119.79 91.8818H5927.61V284.061C5927.61 335.03 5947.86 383.911 5983.9 419.952C6019.94 455.993 6068.82 476.24 6119.79 476.24C6170.76 476.24 6219.64 455.993 6255.68 419.952C6291.73 383.911 6311.97 335.03 6311.97 284.061Z" fill="#0ACF83"/>
<g filter="url(#filter24_f_0_1)">
<path d="M6277.74 284.061C6277.74 242.172 6261.1 201.999 6231.48 172.379C6201.86 142.759 6161.68 126.118 6119.79 126.118H5961.85V284.061C5961.85 325.95 5978.49 366.123 6008.11 395.743C6037.73 425.363 6077.9 442.004 6119.79 442.004C6161.68 442.004 6201.86 425.363 6231.48 395.743C6261.1 366.123 6277.74 325.95 6277.74 284.061Z" fill="url(#paint23_linear_0_1)"/>
</g>
<g opacity="0.3" filter="url(#filter25_f_0_1)">
<path d="M6263.7 284.064C6263.7 245.897 6248.54 209.293 6221.55 182.305C6194.56 155.317 6157.96 140.155 6119.79 140.155H5975.88V284.064C5975.88 322.231 5991.04 358.834 6018.03 385.822C6045.02 412.811 6081.62 427.972 6119.79 427.972C6157.96 427.972 6194.56 412.811 6221.55 385.822C6248.54 358.834 6263.7 322.231 6263.7 284.064Z" fill="url(#paint24_linear_0_1)"/>
</g>
<g filter="url(#filter26_f_0_1)">
<path d="M6251.72 284.064C6251.72 249.074 6237.82 215.517 6213.08 190.775C6188.34 166.033 6154.78 152.134 6119.79 152.134H5987.86V284.064C5987.86 319.054 6001.76 352.611 6026.5 377.352C6051.24 402.094 6084.8 415.994 6119.79 415.994C6154.78 415.994 6188.34 402.094 6213.08 377.352C6237.82 352.611 6251.72 319.054 6251.72 284.064Z" stroke="url(#paint25_linear_0_1)" stroke-width="23.957"/>
</g>
<path d="M6311.97 -100.296C6311.97 -49.3265 6291.73 -0.444977 6255.68 35.5956C6219.64 71.6361 6170.76 91.8835 6119.79 91.8835H5927.61V-292.475H6119.79C6170.76 -292.475 6219.64 -272.227 6255.68 -236.187C6291.73 -200.146 6311.97 -151.265 6311.97 -100.296V-100.296Z" fill="#A259FF"/>
<g filter="url(#filter27_f_0_1)">
<path d="M6281.87 -117.312C6281.87 -74.3265 6264.79 -33.1016 6234.4 -2.7063C6204 27.689 6162.78 44.7649 6119.79 44.7649H5957.72V-279.389H6119.79C6162.78 -279.389 6204 -262.313 6234.4 -231.917C6264.79 -201.522 6281.87 -160.297 6281.87 -117.312Z" fill="url(#paint26_linear_0_1)"/>
</g>
<path d="M6270.76 -117.309C6270.76 -77.2702 6254.85 -38.8711 6226.54 -10.5592C6198.23 17.7526 6159.83 33.6581 6119.79 33.6581H5968.82V-268.276H6119.79C6159.83 -268.276 6198.23 -252.371 6226.54 -224.059C6254.85 -195.747 6270.76 -157.348 6270.76 -117.309Z" fill="url(#paint27_linear_0_1)"/>
<g filter="url(#filter28_f_0_1)">
<path d="M6216.66 -20.441C6242.35 -46.132 6256.78 -80.9765 6256.78 -117.309C6256.78 -153.642 6242.35 -188.486 6216.66 -214.177C6190.97 -239.868 6156.12 -254.301 6119.79 -254.301H5982.8V19.6832H6119.79C6156.12 19.6832 6190.97 5.25009 6216.66 -20.441Z" stroke="url(#paint28_linear_0_1)" stroke-width="27.9498"/>
</g>
</g>
<g filter="url(#filter29_f_0_1)">
<rect x="5303.56" y="2660.26" width="1290.93" height="223.153" rx="111.576" transform="rotate(-180 5303.56 2660.26)" stroke="url(#paint29_linear_0_1)" stroke-width="21"/>
</g>
</g>
<defs>
<filter id="filter0_i_0_1" x="-1494.56" y="-2632.07" width="8518.84" height="8698.56" filterUnits="userSpaceOnUse" color-interpolation-filters="sRGB">
<feFlood flood-opacity="0" result="BackgroundImageFix"/>
<feBlend mode="normal" in="SourceGraphic" in2="BackgroundImageFix" result="shape"/>
<feColorMatrix in="SourceAlpha" type="matrix" values="0 0 0 0 0 0 0 0 0 0 0 0 0 0 0 0 0 0 127 0" result="hardAlpha"/>
<feOffset dx="611.056" dy="790.778"/>
<feGaussianBlur stdDeviation="575.111"/>
<feComposite in2="hardAlpha" operator="arithmetic" k2="-1" k3="1"/>
<feColorMatrix type="matrix" values="0 0 0 0 1 0 0 0 0 0.876513 0 0 0 0 0.8625 0 0 0 1 0"/>
<feBlend mode="normal" in2="shape" result="effect1_innerShadow_0_1"/>
</filter>
<filter id="filter1_f_0_1" x="-1529.56" y="1912.71" width="2492.13" height="2492.13" filterUnits="userSpaceOnUse" color-interpolation-filters="sRGB">
<feFlood flood-opacity="0" result="BackgroundImageFix"/>
<feBlend mode="normal" in="SourceGraphic" in2="BackgroundImageFix" result="shape"/>
<feGaussianBlur stdDeviation="212" result="effect1_foregroundBlur_0_1"/>
</filter>
<filter id="filter2_i_0_1" x="-1105.56" y="2336.71" width="1771.18" height="1808.55" filterUnits="userSpaceOnUse" color-interpolation-filters="sRGB">
<feFlood flood-opacity="0" result="BackgroundImageFix"/>
<feBlend mode="normal" in="SourceGraphic" in2="BackgroundImageFix" result="shape"/>
<feColorMatrix in="SourceAlpha" type="matrix" values="0 0 0 0 0 0 0 0 0 0 0 0 0 0 0 0 0 0 127 0" result="hardAlpha"/>
<feOffset dx="127.047" dy="164.413"/>
<feGaussianBlur stdDeviation="119.573"/>
<feComposite in2="hardAlpha" operator="arithmetic" k2="-1" k3="1"/>
<feColorMatrix type="matrix" values="0 0 0 0 1 0 0 0 0 0.876513 0 0 0 0 0.8625 0 0 0 1 0"/>
<feBlend mode="normal" in2="shape" result="effect1_innerShadow_0_1"/>
</filter>
<filter id="filter3_f_0_1" x="-709.035" y="2570.02" width="1131.69" height="1516.04" filterUnits="userSpaceOnUse" color-interpolation-filters="sRGB">
<feFlood flood-opacity="0" result="BackgroundImageFix"/>
<feBlend mode="normal" in="SourceGraphic" in2="BackgroundImageFix" result="shape"/>
<feGaussianBlur stdDeviation="90.7432" result="effect1_foregroundBlur_0_1"/>
</filter>
<filter id="filter4_f_0_1" x="-171.551" y="3107.51" width="441.091" height="441.091" filterUnits="userSpaceOnUse" color-interpolation-filters="sRGB">
<feFlood flood-opacity="0" result="BackgroundImageFix"/>
<feBlend mode="normal" in="SourceGraphic" in2="BackgroundImageFix" result="shape"/>
<feGaussianBlur stdDeviation="29.9462" result="effect1_foregroundBlur_0_1"/>
</filter>
<filter id="filter5_f_0_1" x="-105.78" y="3173.28" width="309.548" height="309.547" filterUnits="userSpaceOnUse" color-interpolation-filters="sRGB">
<feFlood flood-opacity="0" result="BackgroundImageFix"/>
<feBlend mode="normal" in="SourceGraphic" in2="BackgroundImageFix" result="shape"/>
<feGaussianBlur stdDeviation="5.98924" result="effect1_foregroundBlur_0_1"/>
</filter>
<filter id="filter6_f_0_1" x="-174.029" y="2725.71" width="435.952" height="435.953" filterUnits="userSpaceOnUse" color-interpolation-filters="sRGB">
<feFlood flood-opacity="0" result="BackgroundImageFix"/>
<feBlend mode="normal" in="SourceGraphic" in2="BackgroundImageFix" result="shape"/>
<feGaussianBlur stdDeviation="27.9498" result="effect1_foregroundBlur_0_1"/>
</filter>
<filter id="filter7_f_0_1" x="-115.009" y="2784.73" width="317.906" height="317.905" filterUnits="userSpaceOnUse" color-interpolation-filters="sRGB">
<feFlood flood-opacity="0" result="BackgroundImageFix"/>
<feBlend mode="normal" in="SourceGraphic" in2="BackgroundImageFix" result="shape"/>
<feGaussianBlur stdDeviation="3.99283" result="effect1_foregroundBlur_0_1"/>
</filter>
<filter id="filter8_f_0_1" x="-331.121" y="2937.64" width="441.091" height="441.091" filterUnits="userSpaceOnUse" color-interpolation-filters="sRGB">
<feFlood flood-opacity="0" result="BackgroundImageFix"/>
<feBlend mode="normal" in="SourceGraphic" in2="BackgroundImageFix" result="shape"/>
<feGaussianBlur stdDeviation="29.9462" result="effect1_foregroundBlur_0_1"/>
</filter>
<filter id="filter9_f_0_1" x="-265.348" y="3003.41" width="309.547" height="309.547" filterUnits="userSpaceOnUse" color-interpolation-filters="sRGB">
<feFlood flood-opacity="0" result="BackgroundImageFix"/>
<feBlend mode="normal" in="SourceGraphic" in2="BackgroundImageFix" result="shape"/>
<feGaussianBlur stdDeviation="5.98924" result="effect1_foregroundBlur_0_1"/>
</filter>
<filter id="filter10_f_0_1" x="-333.596" y="2555.84" width="435.952" height="435.953" filterUnits="userSpaceOnUse" color-interpolation-filters="sRGB">
<feFlood flood-opacity="0" result="BackgroundImageFix"/>
<feBlend mode="normal" in="SourceGraphic" in2="BackgroundImageFix" result="shape"/>
<feGaussianBlur stdDeviation="27.9498" result="effect1_foregroundBlur_0_1"/>
</filter>
<filter id="filter11_f_0_1" x="-274.575" y="2614.87" width="317.906" height="317.905" filterUnits="userSpaceOnUse" color-interpolation-filters="sRGB">
<feFlood flood-opacity="0" result="BackgroundImageFix"/>
<feBlend mode="normal" in="SourceGraphic" in2="BackgroundImageFix" result="shape"/>
<feGaussianBlur stdDeviation="3.99283" result="effect1_foregroundBlur_0_1"/>
</filter>
<filter id="filter12_f_0_1" x="4592.28" y="-1415.76" width="2632.13" height="2632.13" filterUnits="userSpaceOnUse" color-interpolation-filters="sRGB">
<feFlood flood-opacity="0" result="BackgroundImageFix"/>
<feBlend mode="normal" in="SourceGraphic" in2="BackgroundImageFix" result="shape"/>
<feGaussianBlur stdDeviation="247" result="effect1_foregroundBlur_0_1"/>
</filter>
<filter id="filter13_i_0_1" x="5086.28" y="-921.758" width="1771.18" height="1808.55" filterUnits="userSpaceOnUse" color-interpolation-filters="sRGB">
<feFlood flood-opacity="0" result="BackgroundImageFix"/>
<feBlend mode="normal" in="SourceGraphic" in2="BackgroundImageFix" result="shape"/>
<feColorMatrix in="SourceAlpha" type="matrix" values="0 0 0 0 0 0 0 0 0 0 0 0 0 0 0 0 0 0 127 0" result="hardAlpha"/>
<feOffset dx="127.047" dy="164.413"/>
<feGaussianBlur stdDeviation="119.573"/>
<feComposite in2="hardAlpha" operator="arithmetic" k2="-1" k3="1"/>
<feColorMatrix type="matrix" values="0 0 0 0 1 0 0 0 0 0.876513 0 0 0 0 0.8625 0 0 0 1 0"/>
<feBlend mode="normal" in2="shape" result="effect1_innerShadow_0_1"/>
</filter>
<filter id="filter14_f_0_1" x="5202.2" y="-688.45" width="1131.69" height="1516.04" filterUnits="userSpaceOnUse" color-interpolation-filters="sRGB">
<feFlood flood-opacity="0" result="BackgroundImageFix"/>
<feBlend mode="normal" in="SourceGraphic" in2="BackgroundImageFix" result="shape"/>
<feGaussianBlur stdDeviation="90.7432" result="effect1_foregroundBlur_0_1"/>
</filter>
<filter id="filter15_f_0_1" x="5355.31" y="-150.962" width="441.091" height="441.091" filterUnits="userSpaceOnUse" color-interpolation-filters="sRGB">
<feFlood flood-opacity="0" result="BackgroundImageFix"/>
<feBlend mode="normal" in="SourceGraphic" in2="BackgroundImageFix" result="shape"/>
<feGaussianBlur stdDeviation="29.9462" result="effect1_foregroundBlur_0_1"/>
</filter>
<filter id="filter16_f_0_1" x="5421.09" y="-85.1904" width="309.547" height="309.548" filterUnits="userSpaceOnUse" color-interpolation-filters="sRGB">
<feFlood flood-opacity="0" result="BackgroundImageFix"/>
<feBlend mode="normal" in="SourceGraphic" in2="BackgroundImageFix" result="shape"/>
<feGaussianBlur stdDeviation="5.98924" result="effect1_foregroundBlur_0_1"/>
</filter>
<filter id="filter17_f_0_1" x="5714.44" y="208.142" width="491.569" height="491.57" filterUnits="userSpaceOnUse" color-interpolation-filters="sRGB">
<feFlood flood-opacity="0" result="BackgroundImageFix"/>
<feBlend mode="normal" in="SourceGraphic" in2="BackgroundImageFix" result="shape"/>
<feGaussianBlur stdDeviation="43.9211" result="effect1_foregroundBlur_0_1"/>
</filter>
<filter id="filter18_f_0_1" x="5744.44" y="238.151" width="431.558" height="431.559" filterUnits="userSpaceOnUse" color-interpolation-filters="sRGB">
<feFlood flood-opacity="0" result="BackgroundImageFix"/>
<feBlend mode="normal" in="SourceGraphic" in2="BackgroundImageFix" result="shape"/>
<feGaussianBlur stdDeviation="35.9354" result="effect1_foregroundBlur_0_1"/>
</filter>
<filter id="filter19_f_0_1" x="5796.35" y="290.057" width="327.745" height="327.746" filterUnits="userSpaceOnUse" color-interpolation-filters="sRGB">
<feFlood flood-opacity="0" result="BackgroundImageFix"/>
<feBlend mode="normal" in="SourceGraphic" in2="BackgroundImageFix" result="shape"/>
<feGaussianBlur stdDeviation="9.98207" result="effect1_foregroundBlur_0_1"/>
</filter>
<filter id="filter20_f_0_1" x="5742.24" y="-165.422" width="435.953" height="435.952" filterUnits="userSpaceOnUse" color-interpolation-filters="sRGB">
<feFlood flood-opacity="0" result="BackgroundImageFix"/>
<feBlend mode="normal" in="SourceGraphic" in2="BackgroundImageFix" result="shape"/>
<feGaussianBlur stdDeviation="27.9498" result="effect1_foregroundBlur_0_1"/>
</filter>
<filter id="filter21_f_0_1" x="5801.27" y="-106.396" width="317.905" height="317.906" filterUnits="userSpaceOnUse" color-interpolation-filters="sRGB">
<feFlood flood-opacity="0" result="BackgroundImageFix"/>
<feBlend mode="normal" in="SourceGraphic" in2="BackgroundImageFix" result="shape"/>
<feGaussianBlur stdDeviation="3.99283" result="effect1_foregroundBlur_0_1"/>
</filter>
<filter id="filter22_f_0_1" x="5514.88" y="-320.83" width="441.091" height="441.091" filterUnits="userSpaceOnUse" color-interpolation-filters="sRGB">
<feFlood flood-opacity="0" result="BackgroundImageFix"/>
<feBlend mode="normal" in="SourceGraphic" in2="BackgroundImageFix" result="shape"/>
<feGaussianBlur stdDeviation="29.9462" result="effect1_foregroundBlur_0_1"/>
</filter>
<filter id="filter23_f_0_1" x="5580.66" y="-255.057" width="309.547" height="309.547" filterUnits="userSpaceOnUse" color-interpolation-filters="sRGB">
<feFlood flood-opacity="0" result="BackgroundImageFix"/>
<feBlend mode="normal" in="SourceGraphic" in2="BackgroundImageFix" result="shape"/>
<feGaussianBlur stdDeviation="5.98924" result="effect1_foregroundBlur_0_1"/>
</filter>
<filter id="filter24_f_0_1" x="5874.01" y="38.276" width="491.569" height="491.57" filterUnits="userSpaceOnUse" color-interpolation-filters="sRGB">
<feFlood flood-opacity="0" result="BackgroundImageFix"/>
<feBlend mode="normal" in="SourceGraphic" in2="BackgroundImageFix" result="shape"/>
<feGaussianBlur stdDeviation="43.9211" result="effect1_foregroundBlur_0_1"/>
</filter>
<filter id="filter25_f_0_1" x="5904.01" y="68.2844" width="431.558" height="431.559" filterUnits="userSpaceOnUse" color-interpolation-filters="sRGB">
<feFlood flood-opacity="0" result="BackgroundImageFix"/>
<feBlend mode="normal" in="SourceGraphic" in2="BackgroundImageFix" result="shape"/>
<feGaussianBlur stdDeviation="35.9354" result="effect1_foregroundBlur_0_1"/>
</filter>
<filter id="filter26_f_0_1" x="5955.92" y="120.191" width="327.745" height="327.746" filterUnits="userSpaceOnUse" color-interpolation-filters="sRGB">
<feFlood flood-opacity="0" result="BackgroundImageFix"/>
<feBlend mode="normal" in="SourceGraphic" in2="BackgroundImageFix" result="shape"/>
<feGaussianBlur stdDeviation="9.98207" result="effect1_foregroundBlur_0_1"/>
</filter>
<filter id="filter27_f_0_1" x="5901.82" y="-335.288" width="435.953" height="435.952" filterUnits="userSpaceOnUse" color-interpolation-filters="sRGB">
<feFlood flood-opacity="0" result="BackgroundImageFix"/>
<feBlend mode="normal" in="SourceGraphic" in2="BackgroundImageFix" result="shape"/>
<feGaussianBlur stdDeviation="27.9498" result="effect1_foregroundBlur_0_1"/>
</filter>
<filter id="filter28_f_0_1" x="5960.84" y="-276.262" width="317.905" height="317.906" filterUnits="userSpaceOnUse" color-interpolation-filters="sRGB">
<feFlood flood-opacity="0" result="BackgroundImageFix"/>
<feBlend mode="normal" in="SourceGraphic" in2="BackgroundImageFix" result="shape"/>
<feGaussianBlur stdDeviation="3.99283" result="effect1_foregroundBlur_0_1"/>
</filter>
<filter id="filter29_f_0_1" x="3979.13" y="2403.61" width="1357.93" height="290.152" filterUnits="userSpaceOnUse" color-interpolation-filters="sRGB">
<feFlood flood-opacity="0" result="BackgroundImageFix"/>
<feBlend mode="normal" in="SourceGraphic" in2="BackgroundImageFix" result="shape"/>
<feGaussianBlur stdDeviation="11.5" result="effect1_foregroundBlur_0_1"/>
</filter>
<linearGradient id="paint0_linear_0_1" x1="178.841" y1="-2258.66" x2="4157.66" y2="5293.49" gradientUnits="userSpaceOnUse">
<stop stop-color="white"/>
<stop offset="0.338542" stop-color="#FFEAE8"/>
<stop offset="0.71875" stop-color="#E8F8FF"/>
<stop offset="0.979167" stop-color="#D6FFEF"/>
</linearGradient>
<linearGradient id="paint1_linear_0_1" x1="-757.634" y1="2414.35" x2="69.6155" y2="3984.54" gradientUnits="userSpaceOnUse">
<stop stop-color="white"/>
<stop offset="0.338542" stop-color="#FFEAE8"/>
<stop offset="0.71875" stop-color="#E8F8FF"/>
<stop offset="0.979167" stop-color="#D6FFEF"/>
</linearGradient>
<linearGradient id="paint2_linear_0_1" x1="-90.1552" y1="3292.33" x2="88.2971" y2="3422.6" gradientUnits="userSpaceOnUse">
<stop stop-color="white"/>
<stop offset="1" stop-color="white" stop-opacity="0"/>
</linearGradient>
<linearGradient id="paint3_linear_0_1" x1="-43.7598" y1="3245.93" x2="9.28543" y2="3297.75" gradientUnits="userSpaceOnUse">
<stop stop-color="white"/>
<stop offset="1" stop-color="white" stop-opacity="0"/>
</linearGradient>
<linearGradient id="paint4_linear_0_1" x1="178.086" y1="2841.94" x2="-10.4498" y2="3017.91" gradientUnits="userSpaceOnUse">
<stop stop-color="white"/>
<stop offset="1" stop-color="white" stop-opacity="0"/>
</linearGradient>
<linearGradient id="paint5_linear_0_1" x1="145.961" y1="2849.66" x2="93.1823" y2="2927.44" gradientUnits="userSpaceOnUse">
<stop stop-color="white" stop-opacity="0.11"/>
<stop offset="1" stop-color="white" stop-opacity="0"/>
</linearGradient>
<linearGradient id="paint6_linear_0_1" x1="131.7" y1="2827.42" x2="90.0638" y2="2852.61" gradientUnits="userSpaceOnUse">
<stop stop-color="white"/>
<stop offset="1" stop-color="white" stop-opacity="0"/>
</linearGradient>
<linearGradient id="paint7_linear_0_1" x1="-249.726" y1="3122.46" x2="-71.2732" y2="3252.73" gradientUnits="userSpaceOnUse">
<stop stop-color="white"/>
<stop offset="1" stop-color="white" stop-opacity="0"/>
</linearGradient>
<linearGradient id="paint8_linear_0_1" x1="-203.327" y1="3076.06" x2="-150.282" y2="3127.88" gradientUnits="userSpaceOnUse">
<stop stop-color="white"/>
<stop offset="1" stop-color="white" stop-opacity="0"/>
</linearGradient>
<linearGradient id="paint9_linear_0_1" x1="18.5197" y1="2672.07" x2="-170.016" y2="2848.04" gradientUnits="userSpaceOnUse">
<stop stop-color="white"/>
<stop offset="1" stop-color="white" stop-opacity="0"/>
</linearGradient>
<linearGradient id="paint10_linear_0_1" x1="-13.6053" y1="2679.79" x2="-66.3841" y2="2757.57" gradientUnits="userSpaceOnUse">
<stop stop-color="white" stop-opacity="0.11"/>
<stop offset="1" stop-color="white" stop-opacity="0"/>
</linearGradient>
<linearGradient id="paint11_linear_0_1" x1="-27.8665" y1="2657.55" x2="-69.5026" y2="2682.74" gradientUnits="userSpaceOnUse">
<stop stop-color="white"/>
<stop offset="1" stop-color="white" stop-opacity="0"/>
</linearGradient>
<linearGradient id="paint12_linear_0_1" x1="6382.49" y1="-844.121" x2="5555.24" y2="726.072" gradientUnits="userSpaceOnUse">
<stop stop-color="white"/>
<stop offset="0.338542" stop-color="#FFEAE8"/>
<stop offset="0.71875" stop-color="#E8F8FF"/>
<stop offset="0.979167" stop-color="#D6FFEF"/>
</linearGradient>
<linearGradient id="paint13_linear_0_1" x1="5715.01" y1="33.86" x2="5536.56" y2="164.13" gradientUnits="userSpaceOnUse">
<stop stop-color="white"/>
<stop offset="1" stop-color="white" stop-opacity="0"/>
</linearGradient>
<linearGradient id="paint14_linear_0_1" x1="5668.62" y1="-12.5387" x2="5615.57" y2="39.2828" gradientUnits="userSpaceOnUse">
<stop stop-color="white"/>
<stop offset="1" stop-color="white" stop-opacity="0"/>
</linearGradient>
<linearGradient id="paint15_linear_0_1" x1="6044.64" y1="518.117" x2="5851.24" y2="466.708" gradientUnits="userSpaceOnUse">
<stop stop-color="white"/>
<stop offset="0.914748" stop-color="white" stop-opacity="0"/>
</linearGradient>
<linearGradient id="paint16_linear_0_1" x1="6119.2" y1="510.347" x2="5992.52" y2="579.88" gradientUnits="userSpaceOnUse">
<stop stop-color="white"/>
<stop offset="1" stop-color="white" stop-opacity="0"/>
</linearGradient>
<linearGradient id="paint17_linear_0_1" x1="6080.06" y1="483.162" x2="6008.53" y2="479.834" gradientUnits="userSpaceOnUse">
<stop stop-color="white"/>
<stop offset="1" stop-color="white" stop-opacity="0"/>
</linearGradient>
<linearGradient id="paint18_linear_0_1" x1="6094.36" y1="-49.189" x2="5905.83" y2="126.778" gradientUnits="userSpaceOnUse">
<stop stop-color="white"/>
<stop offset="1" stop-color="white" stop-opacity="0"/>
</linearGradient>
<linearGradient id="paint19_linear_0_1" x1="6062.24" y1="-41.4679" x2="6009.46" y2="36.3115" gradientUnits="userSpaceOnUse">
<stop stop-color="white" stop-opacity="0.11"/>
<stop offset="1" stop-color="white" stop-opacity="0"/>
</linearGradient>
<linearGradient id="paint20_linear_0_1" x1="6064.6" y1="-20.0637" x2="6047.93" y2="4.29187" gradientUnits="userSpaceOnUse">
<stop stop-color="white"/>
<stop offset="1" stop-color="white" stop-opacity="0"/>
</linearGradient>
<linearGradient id="paint21_linear_0_1" x1="5874.58" y1="-136.008" x2="5696.13" y2="-5.73798" gradientUnits="userSpaceOnUse">
<stop stop-color="white"/>
<stop offset="1" stop-color="white" stop-opacity="0"/>
</linearGradient>
<linearGradient id="paint22_linear_0_1" x1="5828.18" y1="-182.405" x2="5775.14" y2="-130.583" gradientUnits="userSpaceOnUse">
<stop stop-color="white"/>
<stop offset="1" stop-color="white" stop-opacity="0"/>
</linearGradient>
<linearGradient id="paint23_linear_0_1" x1="6204.2" y1="348.25" x2="6010.81" y2="296.842" gradientUnits="userSpaceOnUse">
<stop stop-color="white"/>
<stop offset="0.914748" stop-color="white" stop-opacity="0"/>
</linearGradient>
<linearGradient id="paint24_linear_0_1" x1="6278.77" y1="340.48" x2="6152.09" y2="410.014" gradientUnits="userSpaceOnUse">
<stop stop-color="white"/>
<stop offset="1" stop-color="white" stop-opacity="0"/>
</linearGradient>
<linearGradient id="paint25_linear_0_1" x1="6239.63" y1="313.295" x2="6168.1" y2="309.968" gradientUnits="userSpaceOnUse">
<stop stop-color="white"/>
<stop offset="1" stop-color="white" stop-opacity="0"/>
</linearGradient>
<linearGradient id="paint26_linear_0_1" x1="6253.93" y1="-219.055" x2="6065.4" y2="-43.0884" gradientUnits="userSpaceOnUse">
<stop stop-color="white"/>
<stop offset="1" stop-color="white" stop-opacity="0"/>
</linearGradient>
<linearGradient id="paint27_linear_0_1" x1="6221.81" y1="-211.334" x2="6169.03" y2="-133.555" gradientUnits="userSpaceOnUse">
<stop stop-color="white" stop-opacity="0.11"/>
<stop offset="1" stop-color="white" stop-opacity="0"/>
</linearGradient>
<linearGradient id="paint28_linear_0_1" x1="6224.17" y1="-189.93" x2="6207.5" y2="-165.574" gradientUnits="userSpaceOnUse">
<stop stop-color="white"/>
<stop offset="1" stop-color="white" stop-opacity="0"/>
</linearGradient>
<linearGradient id="paint29_linear_0_1" x1="6555.78" y1="2877.39" x2="6500.1" y2="2804.77" gradientUnits="userSpaceOnUse">
<stop stop-color="white"/>
<stop offset="0.641031" stop-color="white" stop-opacity="0"/>
</linearGradient>
<clipPath id="clip0_0_1">
<rect width="6087" height="3650" fill="white"/>
</clipPath>
</defs>
</svg>
